<?xml version="1.0" encoding="utf-8"?>
<!DOCTYPE svg PUBLIC "-//W3C//DTD SVG 1.1//EN" "http://www.w3.org/Graphics/SVG/1.1/DTD/svg11.dtd">
<svg version="1.1" xmlns="http://www.w3.org/2000/svg" xmlns:xlink="http://www.w3.org/1999/xlink" x="0px" y="0px" viewBox="0 0 256 256" enable-background="new 0 0 256 256" xml:space="preserve">
<g><g><path fill="#ffffff" d="M246,62.8c0-2.9-0.8-5.5-2.2-7.9l-82.8,76l83.2,69.5c1.1-2.2,1.8-4.6,1.8-7.2V62.8L246,62.8z M154.9,136.6l-18,16.6c-2.5,2.2-5.7,3.4-8.9,3.4c-3.2,0-6.4-1.1-8.9-3.4L101,136.5l-84.4,69.6c2.8,2.1,6.4,3.4,10.3,3.4h202.3c3.6,0,6.9-1.1,9.6-2.9L154.9,136.6L154.9,136.6z M124.9,147.2c1.7,1.5,4.5,1.5,6.1,0L238,49c-2.6-1.6-5.6-2.5-8.9-2.5H26.9c-3.2,0-6.2,0.9-8.7,2.4L124.9,147.2L124.9,147.2z M12.2,54.8c-1.4,2.4-2.2,5.1-2.2,8v130.5c0,2.3,0.5,4.5,1.4,6.4l83.5-68.9L12.2,54.8L12.2,54.8z"/></g></g>
</svg>